<svg xmlns="http://www.w3.org/2000/svg" height="1024" preserveAspectRatio="none" style="display: block;" version="1.1" viewBox="0 0 2048 2048" width="1024">
<path d="M 1023.87 745.801 C 1029.51 747.501 1050.17 760.476 1056.32 764.068 C 1088.82 783.048 1120.81 803.503 1153.07 822.829 L 1215.9 859.749 C 1225.25 865.303 1239.96 873.439 1247.85 879.895 C 1249.15 938.504 1248.02 1002.12 1248.04 1061.08 L 1248.04 1116.65 C 1248.04 1126.34 1248.52 1142.38 1246.93 1151.28 C 1241.94 1156.56 1212.71 1172.84 1204.37 1177.8 L 1130.75 1222.25 C 1098.77 1241.42 1067.12 1261.84 1034.95 1280.75 C 1031.95 1282.52 1029.17 1283.67 1025.82 1284.67 C 1023.49 1284.03 1020.13 1282.97 1018.06 1281.79 C 953.767 1244.98 891.321 1205.03 827.245 1167.85 C 818.286 1162.65 809.42 1157.47 801.397 1150.88 C 799.308 1144.4 800.234 1102.53 800.248 1093.51 L 800.159 1006.58 L 800.149 926.076 C 800.154 911.215 799.679 893.814 800.654 879.305 C 808.538 872.942 819.252 867.514 828.184 862.383 C 840.263 855.454 852.242 848.355 864.12 841.087 L 944.068 793.178 C 969.804 777.629 997.641 760.24 1023.87 745.801 z M 1002.97 1107.05 C 1006.82 1107.44 1010.98 1107.95 1014.82 1108.14 C 1015.66 1076.74 1015.88 1045.31 1015.49 1013.9 C 993.392 999.926 971.005 986.419 948.342 973.385 C 936.514 997.091 926.302 1034.7 933.791 1061.65 C 938.356 1078.08 958.517 1090.01 973.499 1096.85 C 982.95 1101.24 992.823 1104.66 1002.97 1107.05 z M 1034.82 1013.35 L 1035.24 1107.83 C 1040.79 1107.21 1045.74 1106.84 1051.16 1105.41 C 1068.71 1100.8 1109.91 1083.5 1114.89 1063.26 C 1120.12 1041.97 1113.98 993.289 1100.27 975.131 L 1099.22 974.834 C 1077.57 987.609 1056.12 999.982 1034.82 1013.35 z M 961.289 957.728 C 981.763 971.341 1002.71 984.231 1024.09 996.373 C 1042.71 987.447 1068.05 969.686 1087.11 958.918 C 1079.4 948.731 1039.71 917.679 1026.05 922.208 C 1002.49 927.598 977.237 939 961.289 957.728 z M 1048.57 906.729 C 1067.67 916.245 1081.75 925.161 1096.36 941.104 C 1100.32 945.429 1101.68 949.124 1107.02 946.362 C 1120.68 938.712 1141.68 926.598 1154.44 917.916 C 1145 911.06 1133.81 904.808 1123.75 898.728 C 1114.36 893.058 1104.55 886.385 1095.1 881.066 C 1079.52 889.489 1064.01 898.043 1048.57 906.729 z M 883.256 1177.87 C 883.683 1178.12 884.11 1178.38 884.537 1178.64 C 902.386 1190.15 920.669 1200.97 939.345 1211.08 C 940.716 1194.17 939.761 1173.8 939.707 1156.57 C 931.722 1152.19 925.494 1147.28 918.128 1142.18 L 884.281 1119.21 C 883.884 1118.95 883.487 1118.69 883.09 1118.44 C 882.768 1137.36 882.87 1158.95 883.256 1177.87 z M 833.696 882.897 C 840.301 886.734 873.574 907.016 877.332 908.475 C 893.599 899.337 923.912 880.945 939.554 870.64 C 927.001 863.866 906.547 849.188 895.423 844.917 C 877.822 856.927 852.418 872.403 833.696 882.897 z M 898.461 920.169 C 907.037 925.552 937.035 944.898 944.648 946.977 C 965.979 923.322 976.213 921.038 1004.16 906.974 C 998.081 903.892 961.285 881.581 958.57 881.92 C 938.566 894.12 918.342 908.518 898.461 920.169 z M 1109.39 1156.87 C 1111.38 1172.76 1107.72 1196.89 1110.36 1210.95 C 1127.09 1201.59 1150.44 1185.26 1165.02 1177.85 C 1165.04 1170.2 1166 1120.81 1163.87 1118.89 C 1145.54 1130.27 1128.84 1144.5 1109.39 1156.87 z M 960.114 1224.41 C 966.492 1228.09 1012.08 1256.84 1014.84 1256.55 C 1016.35 1242.3 1015.75 1216.45 1015.54 1201.23 C 1000.23 1194.13 972.495 1181.61 959.861 1170.63 C 959.852 1188.56 959.937 1206.48 960.114 1224.41 z M 1185.34 1012.55 C 1185.2 1025.53 1185.19 1037.55 1185.49 1050.57 C 1185.74 1061.23 1184.29 1069.68 1185.72 1080.66 L 1187.45 1079.69 C 1200.01 1072.77 1214.91 1061.59 1228.13 1053.55 C 1228.17 1044.17 1228.98 991.358 1227.79 986.157 C 1213.93 993.851 1200.25 1003.38 1186.45 1011.85 L 1185.34 1012.55 z M 1035.4 1200.84 C 1035.62 1206.87 1034.54 1254.57 1035.77 1255.54 C 1056.27 1245.37 1071.3 1234.95 1090.54 1223.07 C 1090.42 1217.83 1089.84 1170.98 1088.6 1170.07 C 1068.47 1184.3 1057.28 1189.89 1035.4 1200.84 z M 820.107 1052.34 C 828.985 1059.01 853.988 1075.66 863.124 1081 C 864.081 1061.3 862.753 1033.23 862.976 1012.61 C 854.35 1006.53 828.644 989.872 819.965 985.234 C 820.251 1007.6 820.299 1029.97 820.107 1052.34 z M 1114.98 869.376 L 1116.53 870.483 C 1119.82 872.869 1174.67 907.187 1174.43 907.161 C 1190.97 898.259 1198.29 891.166 1216.58 884.538 C 1204.4 876.321 1193.24 869.871 1180.48 862.536 C 1172.25 857.804 1165.22 852.519 1156.56 848.038 C 1144.9 854.616 1127.25 863.362 1114.98 869.376 z M 1164.85 936.017 C 1148.6 946.115 1132.3 954.619 1115.73 963.978 C 1123.21 976.083 1130.24 993.55 1132.61 1007.53 C 1133.32 1013.16 1134.38 1015.91 1135.57 1021.37 C 1144.64 1016.3 1153.47 1010.8 1162.02 1004.89 C 1163.15 1004.12 1164.39 1003.39 1165.55 1002.65 C 1165.79 995.737 1166.76 937.736 1164.85 936.017 z M 916.827 833.676 C 925.009 839.432 948.939 852.972 958.517 858.228 C 972.723 850.452 994.839 836.981 1007.93 827.526 C 998.276 821.361 977.439 807.549 967.68 802.923 C 949.991 811.901 932.994 822.18 916.827 833.676 z M 943.082 1102.23 C 943.876 1104.31 944.414 1105.88 945.106 1107.98 C 954.899 1136.94 975.966 1160.71 1003.53 1173.92 C 1006.29 1175.23 1012.07 1178.48 1014.98 1178.3 C 1015.19 1164.35 1016 1141.51 1015.33 1128.11 C 1008.54 1126.98 1002.33 1126.1 995.54 1124.66 L 991.504 1123.8 C 970.224 1119.16 961.203 1111.7 943.082 1102.23 z M 1045.53 827.146 C 1060.51 837.217 1079 849.234 1094.96 857.1 C 1096.5 856.597 1098.04 856.095 1099.58 855.592 C 1111.62 849.399 1125.84 842.361 1137.25 835.224 C 1124.23 828.473 1094.82 810.706 1082.61 802.786 C 1072.92 808.058 1055.66 820.462 1045.53 827.146 z M 883.162 1094.57 C 888.524 1099.68 924.082 1123.26 930.641 1124.68 C 927.973 1116.69 924.801 1109.8 921.907 1101.98 C 914.705 1082.53 912.189 1064.05 911.443 1043.36 C 901.368 1036.66 891.781 1031.58 882.472 1025.56 C 883.65 1047.03 882.91 1072.71 883.162 1094.57 z M 1035.28 1177.5 C 1067.84 1167.51 1084.81 1145.53 1100.26 1116.44 C 1101.95 1113.24 1105.28 1106.64 1104.76 1103.03 C 1082.76 1115.78 1060.96 1125.27 1035.39 1128.51 C 1035.21 1141.19 1034.51 1165.28 1035.28 1177.5 z M 1024.94 768.879 C 1011.77 776.4 1000.36 783.05 987.676 791.506 L 1024.96 815.346 C 1025.22 815.504 1025.48 815.661 1025.74 815.819 C 1037.02 809.108 1050.71 800.184 1061.84 793.043 L 1063.22 792.147 C 1058.21 788.336 1030.22 770.756 1024.94 768.879 z M 1164.6 1026.02 C 1155.73 1031.81 1146.65 1037.28 1137.39 1042.42 C 1136.51 1061.19 1135.02 1075.96 1129.64 1093.98 C 1127.7 1100.47 1118.42 1120.75 1119.62 1125.08 C 1136.64 1114.24 1148.51 1105.41 1164.8 1093.64 C 1164.78 1086.16 1165.57 1030.53 1164.6 1026.02 z M 820.109 961.199 L 823.379 963.229 C 827.873 966.029 860.123 988.098 862.307 987.3 C 863.53 969.471 863.061 941.784 863.027 923.437 C 849.384 914.462 834.657 906.189 820.326 898.389 C 820.603 919.119 819.918 940.342 820.109 961.199 z M 881.92 934.408 C 882.138 956.985 882.977 979.048 882.859 1001.84 C 892.253 1008.43 902.737 1015.35 912.511 1021.34 C 913.341 1015.2 914.719 1009.3 916.053 1003.23 C 920.363 987.189 924.003 978.324 932.546 963.788 C 916.17 953.406 898.154 944.758 881.92 934.408 z M 1227.1 1077.3 C 1213.01 1085.99 1198.64 1096.51 1184.99 1106.01 C 1184.9 1112.4 1184.28 1163.08 1185.85 1164.69 C 1200.71 1156.4 1214.04 1148.8 1228.34 1139.43 C 1228.31 1121.77 1228.59 1098.32 1227.8 1080.98 L 1227.72 1078.93 C 1227.68 1078.02 1227.68 1077.95 1227.1 1077.3 z M 820.654 1077.53 C 819.944 1098.06 819.747 1118.6 820.064 1139.14 C 830.816 1148.44 850.437 1157.07 862.887 1164.82 C 864.031 1145.79 863.605 1125.25 863.037 1106.16 C 851.305 1095.85 834.536 1084.53 820.654 1077.53 z M 1227.94 899.344 L 1185.25 923.606 C 1185.24 930.098 1185.88 986.857 1187.3 988.148 C 1200.66 979.508 1215.21 969.816 1228.68 961.607 C 1228.72 954.983 1229.05 900.771 1227.94 899.344 z M 1075.01 868.6 C 1067.26 864.556 1031.31 840.588 1026.19 840.027 C 1009.19 850.125 995.353 859.4 978.976 869.549 C 992.702 877.709 1009.05 888.582 1023.27 896.402 C 1024.23 896.931 1026.34 896.437 1027.42 896.178 C 1039.52 890.253 1063 876.044 1075.01 868.6 z" fill="rgb(41,37,38)" transform="translate(0,0)"></path>
<path d="M 1417.04 1116.21 C 1424.35 1118.04 1427.28 1121.72 1427.38 1129.36 C 1428.09 1187.06 1403.7 1251.39 1368.37 1294.96 C 1321.8 1352.83 1253.81 1389.41 1179.87 1396.41 C 1166.24 1393.88 1170.11 1378.99 1179.27 1376.42 C 1185.83 1374.58 1196.75 1374.18 1204.26 1372.77 C 1225.28 1368.72 1245.68 1361.98 1264.98 1352.72 C 1334.83 1319 1385.45 1255.21 1402.42 1179.52 C 1404.67 1169.38 1406.08 1160.85 1407.16 1150.61 C 1407.96 1142.98 1407.67 1126.69 1409.97 1119.94 C 1412.07 1117.39 1413.86 1117.21 1417.04 1116.21 z" fill="rgb(41,37,38)" transform="translate(0,0)"></path>
<path d="M 857.966 644.401 C 864.405 643.731 870.514 643.404 875.497 648.329 C 879.029 651.818 876.046 659.769 871.701 661.109 C 861.244 664.334 850.012 665.364 839.186 667.508 C 820.899 671.146 803.095 676.894 786.134 684.636 C 713.775 717.772 661.62 783.505 645.801 861.502 C 643.958 870.35 642.817 879.04 641.705 887.984 C 640.373 898.693 642.382 911.378 638.245 921.308 C 614.653 930.31 622.069 892.226 623.381 880.264 C 628.95 829.5 647.882 783.958 679.458 743.964 C 723.465 688.49 787.644 652.694 857.966 644.401 z" fill="rgb(41,37,38)" transform="translate(0,0)"></path>
<path d="M 1177.1 644.074 C 1179.95 643.822 1182.87 643.735 1185.73 644.019 C 1267.96 652.211 1345.03 700.358 1387.51 771.325 C 1407.58 805.061 1421.39 843.408 1425.2 882.589 C 1426.41 894.989 1432.22 914.296 1421.65 922.969 C 1416.73 923.336 1414.81 923.149 1410.87 920.551 C 1406.97 915.361 1407.45 906.56 1407.19 900.251 C 1402.07 775.308 1303.62 673.934 1179.63 663.127 C 1170.09 662.294 1170.8 650.577 1177.1 644.074 z" fill="rgb(41,37,38)" transform="translate(0,0)"></path>
<path d="M 631.47 1116.07 C 635.797 1117.18 639.564 1119.34 639.863 1123.99 C 640.595 1135.34 641.203 1146.49 642.209 1157.82 C 645.332 1193.03 660.263 1230.67 678.863 1260.58 C 711.74 1312.67 765.03 1351.45 824.238 1368.06 C 839.159 1372.24 850.327 1373.76 865.311 1375.64 C 874.926 1376.85 884.467 1390.71 867.372 1395.6 C 841.79 1393.46 816.648 1387.66 792.718 1378.36 C 727.617 1353.74 672.675 1300.38 644.386 1236.87 C 638.67 1224.23 633.922 1211.17 630.184 1197.8 C 625.997 1182.71 617.845 1138.59 622.552 1122.22 C 623.626 1118.48 627.969 1117.15 631.47 1116.07 z" fill="rgb(41,37,38)" transform="translate(0,0)"></path>
<path d="M 1354.99 1115.94 C 1368.36 1117 1367.63 1129.13 1366.93 1139.5 C 1359.95 1243.31 1283.94 1320.45 1182.46 1333.24 C 1165.1 1332.36 1171.13 1315.07 1178.23 1314.13 C 1208.24 1310.15 1234.48 1302.02 1260.37 1285.65 C 1304.76 1257.61 1335.38 1212.27 1344.8 1160.62 C 1347.03 1148.19 1346.41 1134.4 1348.55 1121.97 C 1349 1119.33 1352.62 1117.37 1354.99 1115.94 z" fill="rgb(41,37,38)" transform="translate(0,0)"></path>
<path d="M 691.298 1115.94 C 707.004 1117.59 701.747 1137.08 702.981 1149.66 C 711.299 1234.41 783.23 1307.28 868.755 1313.27 C 878.121 1313.92 880.776 1326.66 869.959 1332.75 C 847.542 1331.73 825.508 1326.56 804.974 1317.51 C 737.701 1287.28 684.801 1217.14 683.158 1142.47 C 682.931 1132.17 679.477 1120.3 691.298 1115.94 z" fill="rgb(41,37,38)" transform="translate(0,0)"></path>
<path d="M 858.129 707.356 C 861.863 706.985 865.111 706.824 868.504 708.59 C 870.786 709.777 872.619 711.759 873.107 714.345 C 873.555 716.718 872.726 720.223 871.298 722.233 C 867.482 727.605 860.403 727.059 854.561 727.842 C 782.304 737.521 720.998 798.769 706.089 869.047 C 703.738 880.13 702.536 915.605 697.832 921.871 C 675.573 927.32 682.741 902.738 683.565 888.565 C 688.796 798.57 768.887 716.663 858.129 707.356 z" fill="rgb(41,37,38)" transform="translate(0,0)"></path>
<path d="M 1183.75 706.348 C 1193.74 707.188 1203.64 708.918 1213.32 711.516 C 1266.99 726.054 1312.64 761.391 1340.17 809.698 C 1355.2 835.977 1363.51 865.422 1365.91 895.515 C 1366.79 906.589 1370.86 917.62 1358.78 923.756 C 1356.08 923.169 1349.22 921.095 1348.92 917.976 C 1346.12 888.276 1345.21 866.862 1333.01 838.684 C 1312.3 790.556 1272.57 753.16 1223.28 735.392 C 1208.84 730.306 1197.07 728.532 1182.6 725.26 C 1175.06 723.555 1169.62 710.239 1183.75 706.348 z" fill="rgb(41,37,38)" transform="translate(0,0)"></path>
<path d="M 1291.65 1115.89 C 1299.7 1115.99 1304.33 1119.64 1304.53 1128.03 C 1306.24 1202.74 1254.65 1258.5 1183.23 1269.93 C 1172.21 1270.68 1165.73 1258.37 1175.25 1252.87 C 1181.55 1250.22 1190.02 1249.15 1196.53 1247.38 C 1244.04 1234.52 1276.84 1195.58 1284.89 1147.51 C 1286.93 1135.37 1280.74 1125.11 1291.65 1115.89 z" fill="rgb(41,37,38)" transform="translate(0,0)"></path>
<path d="M 750.755 1115.94 C 755.201 1115.91 762.387 1117 762.414 1122.27 C 762.662 1169.89 780.425 1214.31 827.584 1238.82 C 833.491 1241.88 839.66 1244.41 846.016 1246.38 C 854.953 1249.15 895.849 1253.55 870.61 1270.16 C 865.343 1269.87 860.095 1269.3 854.886 1268.47 C 789.782 1257.65 741.76 1194.07 743.551 1129.39 C 743.736 1122.7 745.15 1119.43 750.755 1115.94 z" fill="rgb(41,37,38)" transform="translate(0,0)"></path>
<path d="M 858.029 771.232 C 861.534 771.87 863.718 772.623 865.395 776.053 C 866.463 778.192 866.678 780.656 865.999 782.947 C 862.972 792.998 843.572 793.25 831.145 799.26 C 794.593 816.515 769.23 851.066 763.723 891.11 C 762.776 898.228 763.167 904.011 763.355 911.122 C 763.584 919.773 760.334 921.22 752.966 923.728 C 740.751 920.232 743.613 910.137 743.745 899.811 C 744.543 837.324 796.181 779.336 858.029 771.232 z" fill="rgb(41,37,38)" transform="translate(0,0)"></path>
<path d="M 1187.44 771.129 C 1249.54 773.522 1305.53 842.007 1305.11 901.315 C 1305.04 910.758 1309.03 916.641 1299.48 923.024 C 1294.81 922.874 1289.18 923.138 1287.42 917.6 C 1284.89 909.962 1285.71 900.189 1284.95 892.389 C 1280.26 844.101 1241.47 801.071 1193.74 791.942 C 1190.01 791.229 1182.72 787.601 1180.78 784.016 C 1177.81 778.511 1182.59 773.262 1187.44 771.129 z" fill="rgb(41,37,38)" transform="translate(0,0)"></path>
<metadata><recraft-signature>{"signed_by": "recraft", "signature_b64": "PcG5dCOg6vHxwqvhxHmSQBeIjSIFWmlRU2UX3ELuxo9eI+60QP0YLh/cVM0zwwxrUmjUWAbr46goKKAD9h2mCA==", "signing_algo": "Ed25519", "generation_timestamp": 1781181179, "identifier": "2fd688e3-afc9-4657-9d3a-c3577f99d2ca"}</recraft-signature></metadata></svg>